{
	"nodes":[{
		"name":"Cube.002",
		"translation":[0.0,
		0.0,
		0.0],
		"rotation":[0.7071067690849304,
		0.0,
		0.0,
		-0.7071067690849304],
		"scale":[100.0,
		100.0,
		100.0],
		"mesh":0
	}],
	"asset":{
		"version":"2.0",
		"generator":"Created using the official Cinema 4D glTF Exporter 1.000x284978"
	},
	"scenes":[{
		"nodes":[0]
	}],
	"meshes":[{
		"name":"Cube.002",
		"primitives":[{
			"attributes":{
				"POSITION":1,
				"NORMAL":2,
				"TEXCOORD_0":3
			},
			"indices":0,
			"material":0
		}]
	}],
	"accessors":[{
		"bufferView":0,
		"type":"SCALAR",
		"componentType":5123,
		"count":9672,
		"byteOffset":0,
		"min":[0],
		"max":[1714]
	},
	{
		"bufferView":1,
		"type":"VEC3",
		"componentType":5126,
		"count":1715,
		"byteOffset":0,
		"min":[-2.1702027320861818,
		-0.7114531397819519,
		-0.03295183554291725],
		"max":[2.1611499786376955,
		0.7809541821479797,
		5.775951385498047]
	},
	{
		"bufferView":1,
		"type":"VEC3",
		"componentType":5126,
		"count":1715,
		"byteOffset":12,
		"min":[-1.0,
		-0.9999974966049194,
		-1.0],
		"max":[1.0,
		0.999996542930603,
		1.0]
	},
	{
		"bufferView":1,
		"type":"VEC2",
		"componentType":5126,
		"count":1715,
		"byteOffset":24,
		"min":[0.00009853510709945112,
		0.4053705334663391],
		"max":[0.9999014139175415,
		0.9999014139175415]
	}],
	"bufferViews":[{
		"buffer":0,
		"byteOffset":0,
		"byteLength":19344,
		"target":34963
	},
	{
		"buffer":0,
		"byteOffset":19344,
		"byteLength":54880,
		"target":34962,
		"byteStride":32
	}],
	"buffers":[{
		"uri":"data:application/octet-stream;base64,",
		"byteLength":74224
	}],
	"materials":[{
		"pbrMetallicRoughness":{
			"baseColorFactor":[0.800000011920929,
			0.800000011920929,
			0.800000011920929,
			1.0],
			"metallicFactor":0.0,
			"roughnessFactor":0.4830075027221463
		},
		"emissiveFactor":[0.0,
		0.0,
		0.0],
		"alphaMode":"OPAQUE",
		"doubleSided":false,
		"name":"Material"
	}]
}