{
	"nodes":[{
		"name":"Standing pouch",
		"translation":[0.0,
		0.0,
		0.0],
		"rotation":[0.7071067690849304,
		0.0,
		0.0,
		-0.7071067690849304],
		"scale":[100.0,
		100.0,
		100.0],
		"children":[1,
		2,
		3]
	},
	{
		"mesh":0,
		"name":"Standing pouch-front"
	},
	{
		"mesh":1,
		"name":"Standing pouch-back"
	},
	{
		"mesh":2,
		"name":"Standing pouch-Material.001"
	}],
	"asset":{
		"version":"2.0",
		"generator":"Created using the official Cinema 4D glTF Exporter 1.000x284978"
	},
	"scenes":[{
		"nodes":[0]
	}],
	"materials":[{
		"pbrMetallicRoughness":{
			"baseColorFactor":[0.800000011920929,
			0.800000011920929,
			0.800000011920929,
			1.0],
			"metallicFactor":1.0,
			"roughnessFactor":0.0
		},
		"emissiveFactor":[0.0,
		0.0,
		0.0],
		"alphaMode":"OPAQUE",
		"doubleSided":false,
		"name":"front"
	},
	{
		"pbrMetallicRoughness":{
			"baseColorFactor":[0.800000011920929,
			0.800000011920929,
			0.800000011920929,
			1.0],
			"metallicFactor":0.0,
			"roughnessFactor":0.5253083139548604
		},
		"emissiveFactor":[0.0,
		0.0,
		0.0],
		"alphaMode":"OPAQUE",
		"doubleSided":false,
		"name":"back"
	},
	{
		"pbrMetallicRoughness":{
			"baseColorFactor":[0.8000000715255737,
			0.8000000715255737,
			0.8000000715255737,
			1.0],
			"metallicFactor":1.0,
			"roughnessFactor":1.0
		},
		"emissiveFactor":[0.0,
		0.0,
		0.0],
		"alphaMode":"OPAQUE",
		"doubleSided":false,
		"name":"Material.001"
	}],
	"meshes":[{
		"name":"Standing pouch-front",
		"primitives":[{
			"attributes":{
				"POSITION":1,
				"NORMAL":2,
				"TEXCOORD_0":3
			},
			"indices":0,
			"material":0
		}]
	},
	{
		"name":"Standing pouch-back",
		"primitives":[{
			"attributes":{
				"POSITION":5,
				"NORMAL":6,
				"TEXCOORD_0":7
			},
			"indices":4,
			"material":1
		}]
	},
	{
		"name":"Standing pouch-Material.001",
		"primitives":[{
			"attributes":{
				"POSITION":9,
				"NORMAL":10,
				"TEXCOORD_0":11
			},
			"indices":8,
			"material":2
		}]
	}],
	"accessors":[{
		"min":[0],
		"bufferView":0,
		"count":9216,
		"type":"SCALAR",
		"byteOffset":0,
		"componentType":5123,
		"max":[1624]
	},
	{
		"min":[-0.6429591774940491,
		-0.1586540788412094,
		-0.9657312631607056],
		"bufferView":1,
		"count":1625,
		"type":"VEC3",
		"byteOffset":0,
		"componentType":5126,
		"max":[0.6420212388038635,
		-0.0038070755545049907,
		0.992937445640564]
	},
	{
		"min":[-0.6304062604904175,
		-0.9999688267707825,
		-0.6257500052452087],
		"bufferView":1,
		"count":1625,
		"type":"VEC3",
		"byteOffset":12,
		"componentType":5126,
		"max":[0.5952500104904175,
		-0.5796250104904175,
		0.8147500157356262]
	},
	{
		"min":[0.0,
		0.05527925491333008],
		"bufferView":1,
		"count":1625,
		"type":"VEC2",
		"byteOffset":24,
		"componentType":5126,
		"max":[1.0,
		0.9291802644729614]
	},
	{
		"min":[0],
		"bufferView":2,
		"count":9216,
		"type":"SCALAR",
		"byteOffset":0,
		"componentType":5123,
		"max":[1624]
	},
	{
		"min":[-0.6429592370986939,
		0.0038070755545049907,
		-0.9657313227653503],
		"bufferView":3,
		"count":1625,
		"type":"VEC3",
		"byteOffset":0,
		"componentType":5126,
		"max":[0.6420211791992188,
		0.1586540788412094,
		0.9929373860359192]
	},
	{
		"min":[-0.6304062604904175,
		0.5796250104904175,
		-0.6254062652587891],
		"bufferView":3,
		"count":1625,
		"type":"VEC3",
		"byteOffset":12,
		"componentType":5126,
		"max":[0.5952500104904175,
		0.9999688267707825,
		0.8147500157356262]
	},
	{
		"min":[1.1920928955078126e-7,
		0.044784367084503177],
		"bufferView":3,
		"count":1625,
		"type":"VEC2",
		"byteOffset":24,
		"componentType":5126,
		"max":[1.0,
		0.9457619190216065]
	},
	{
		"min":[0],
		"bufferView":4,
		"count":6912,
		"type":"SCALAR",
		"byteOffset":0,
		"componentType":5123,
		"max":[1377]
	},
	{
		"min":[-0.647763729095459,
		-0.15297755599021913,
		-0.9787188768386841],
		"bufferView":5,
		"count":1378,
		"type":"VEC3",
		"byteOffset":0,
		"componentType":5126,
		"max":[0.6475546360015869,
		0.15297754108905793,
		0.9982408285140991]
	},
	{
		"min":[-1.0,
		-0.9730625748634338,
		-1.0],
		"bufferView":5,
		"count":1378,
		"type":"VEC3",
		"byteOffset":12,
		"componentType":5126,
		"max":[1.0,
		0.9730625748634338,
		1.0]
	},
	{
		"min":[0.00017384787497576326,
		0.00011307001113891602],
		"bufferView":5,
		"count":1378,
		"type":"VEC2",
		"byteOffset":24,
		"componentType":5126,
		"max":[0.6273916363716126,
		0.9998867511749268]
	}],
	"bufferViews":[{
		"buffer":0,
		"byteOffset":0,
		"byteLength":18432,
		"target":34963
	},
	{
		"buffer":0,
		"byteOffset":18432,
		"byteLength":52000,
		"target":34962,
		"byteStride":32
	},
	{
		"buffer":1,
		"byteOffset":0,
		"byteLength":18432,
		"target":34963
	},
	{
		"buffer":1,
		"byteOffset":18432,
		"byteLength":52000,
		"target":34962,
		"byteStride":32
	},
	{
		"buffer":2,
		"byteOffset":0,
		"byteLength":13824,
		"target":34963
	},
	{
		"buffer":2,
		"byteOffset":13824,
		"byteLength":44096,
		"target":34962,
		"byteStride":32
	}],
	"buffers":[{
		"uri":"data:application/octet-stream;base64,",
		"byteLength":70432
	},
	{
		"uri":"data:application/octet-stream;base64,",
		"byteLength":70432
	},
	{
		"uri":"data:application/octet-stream;base64,",
		"byteLength":57920
	}]
}